<?xml version="1.0"?>
<svg xmlns="http://www.w3.org/2000/svg" xmlns:lc="http://www.librecad.org" xmlns:xlink="http://www.w3.org/1999/xlink" width="325.125mm" height="140.375mm" viewBox="0 0 325.125 140.375">
    <g lc:layername="0" lc:is_locked="false" lc:is_construction="false" fill="none" stroke="black" stroke-width="1">
        <path d="M28.125,9.125 A5,5 0 0,0 23.125,14.125 "/>
        <path d="M23.125,114.125 A5,5 0 0,0 28.125,119.125 "/>
        <line x1="320.125" y1="119.125" x2="28.125" y2="119.125"/>
        <path d="M320.125,119.125 A5,5 0 0,0 325.125,114.125 "/>
        <line x1="325.125" y1="14.125" x2="325.125" y2="114.125"/>
        <path d="M325.125,14.125 A5,5 0 0,0 320.125,9.125 "/>
        <circle cx="28.125" cy="114.125" r="1.5"/>
        <circle cx="320.125" cy="114.125" r="1.5"/>
        <circle cx="320.125" cy="14.125" r="1.5"/>
        <circle cx="174.625" cy="115.125" r="1.5"/>
        <line x1="23.125" y1="14.125" x2="23.125" y2="114.125"/>
        <circle cx="174.625" cy="13.625" r="1.5"/>
        <circle cx="37.625" cy="13.125" r="1.5"/>
        <circle cx="63.125" cy="13.125" r="1.5"/>
        <line x1="41.875" y1="11.125" x2="58.875" y2="11.125"/>
        <line x1="60.87500131" y1="9.125" x2="320.125" y2="9.125"/>
        <path d="M60.87499869,9.125 A2,2 0 0,0 58.875,11.125 "/>
        <path d="M41.875,11.125 A2,2 0 0,0 39.87500117,9.125 "/>
        <line x1="39.87499883" y1="9.125" x2="28.075" y2="9.125"/>
        <line x1="174.125" y1="119.125" x2="184.125" y2="119.125"/>
        <line x1="171.025" y1="57.125" x2="171.025" y2="52.125"/>
        <line x1="171.625" y1="50.925" x2="176.625" y2="50.925"/>
        <line x1="177.225" y1="57.125" x2="177.225" y2="52.125"/>
    </g>
    <g lc:layername="Layer1" lc:is_locked="false" lc:is_construction="false" fill="none" stroke="black" stroke-width="1">
        <path d="M67.125,19.125 L53.125,19.125 L53.125,33.125 L67.125,33.125 L67.125,19.125 L67.125,19.125 Z "/>
        <path d="M86.125,19.125 L72.125,19.125 L72.125,33.125 L86.125,33.125 L86.125,19.125 L86.125,19.125 Z "/>
        <path d="M105.125,19.125 L91.125,19.125 L91.125,33.125 L105.125,33.125 L105.125,19.125 L105.125,19.125 Z "/>
        <path d="M124.125,19.125 L110.125,19.125 L110.125,33.125 L124.125,33.125 L124.125,19.125 L124.125,19.125 Z "/>
        <path d="M143.125,19.125 L129.125,19.125 L129.125,33.125 L143.125,33.125 L143.125,19.125 L143.125,19.125 Z "/>
        <path d="M162.125,19.125 L148.125,19.125 L148.125,33.125 L162.125,33.125 L162.125,19.125 L162.125,19.125 Z "/>
        <path d="M181.125,19.125 L167.125,19.125 L167.125,33.125 L181.125,33.125 L181.125,19.125 L181.125,19.125 Z "/>
        <path d="M200.125,19.125 L186.125,19.125 L186.125,33.125 L200.125,33.125 L200.125,19.125 L200.125,19.125 Z "/>
        <path d="M219.125,19.125 L205.125,19.125 L205.125,33.125 L219.125,33.125 L219.125,19.125 L219.125,19.125 Z "/>
        <path d="M238.125,19.125 L224.125,19.125 L224.125,33.125 L238.125,33.125 L238.125,19.125 L238.125,19.125 Z "/>
        <path d="M257.125,19.125 L243.125,19.125 L243.125,33.125 L257.125,33.125 L257.125,19.125 L257.125,19.125 Z "/>
        <path d="M276.125,19.125 L262.125,19.125 L262.125,33.125 L276.125,33.125 L276.125,19.125 L276.125,19.125 Z "/>
        <path d="M295.125,19.125 L281.125,19.125 L281.125,33.125 L295.125,33.125 L295.125,19.125 L295.125,19.125 Z "/>
        <path d="M71.875,38.125 L57.875,38.125 L57.875,52.125 L71.875,52.125 L71.875,38.125 L71.875,38.125 Z "/>
        <path d="M95.625,38.125 L81.625,38.125 L81.625,52.125 L95.625,52.125 L95.625,38.125 L95.625,38.125 Z "/>
        <path d="M114.625,38.125 L100.625,38.125 L100.625,52.125 L114.625,52.125 L114.625,38.125 L114.625,38.125 Z "/>
        <path d="M133.625,38.125 L119.625,38.125 L119.625,52.125 L133.625,52.125 L133.625,38.125 L133.625,38.125 Z "/>
        <path d="M152.625,38.125 L138.625,38.125 L138.625,52.125 L152.625,52.125 L152.625,38.125 L152.625,38.125 Z "/>
        <path d="M209.625,38.125 L195.625,38.125 L195.625,52.125 L209.625,52.125 L209.625,38.125 L209.625,38.125 Z "/>
        <path d="M228.625,38.125 L214.625,38.125 L214.625,52.125 L228.625,52.125 L228.625,38.125 L228.625,38.125 Z "/>
        <path d="M247.625,38.125 L233.625,38.125 L233.625,52.125 L247.625,52.125 L247.625,38.125 L247.625,38.125 Z "/>
        <path d="M266.625,38.125 L252.625,38.125 L252.625,52.125 L266.625,52.125 L266.625,38.125 L266.625,38.125 Z "/>
        <path d="M290.375,38.125 L276.375,38.125 L276.375,52.125 L290.375,52.125 L290.375,38.125 L290.375,38.125 Z "/>
        <path d="M67.125,57.125 L53.125,57.125 L53.125,71.125 L67.125,71.125 L67.125,57.125 L67.125,57.125 Z "/>
        <path d="M86.125,57.125 L72.125,57.125 L72.125,71.125 L86.125,71.125 L86.125,57.125 L86.125,57.125 Z "/>
        <path d="M105.125,57.125 L91.125,57.125 L91.125,71.125 L105.125,71.125 L105.125,57.125 L105.125,57.125 Z "/>
        <path d="M124.125,57.125 L110.125,57.125 L110.125,71.125 L124.125,71.125 L124.125,57.125 L124.125,57.125 Z "/>
        <path d="M143.125,57.125 L129.125,57.125 L129.125,71.125 L143.125,71.125 L143.125,57.125 L143.125,57.125 Z "/>
        <path d="M162.125,57.125 L148.125,57.125 L148.125,71.125 L162.125,71.125 L162.125,57.125 L162.125,57.125 Z "/>
        <path d="M200.125,57.125 L186.125,57.125 L186.125,71.125 L200.125,71.125 L200.125,57.125 L200.125,57.125 Z "/>
        <path d="M219.125,57.125 L205.125,57.125 L205.125,71.125 L219.125,71.125 L219.125,57.125 L219.125,57.125 Z "/>
        <path d="M238.125,57.125 L224.125,57.125 L224.125,71.125 L238.125,71.125 L238.125,57.125 L238.125,57.125 Z "/>
        <path d="M257.125,57.125 L243.125,57.125 L243.125,71.125 L257.125,71.125 L257.125,57.125 L257.125,57.125 Z "/>
        <path d="M276.125,57.125 L262.125,57.125 L262.125,71.125 L276.125,71.125 L276.125,57.125 L276.125,57.125 Z "/>
        <path d="M295.125,57.125 L281.125,57.125 L281.125,71.125 L295.125,71.125 L295.125,57.125 L295.125,57.125 Z "/>
        <path d="M71.875,76.125 L57.875,76.125 L57.875,90.125 L71.875,90.125 L71.875,76.125 L71.875,76.125 Z "/>
        <path d="M95.625,76.125 L81.625,76.125 L81.625,90.125 L95.625,90.125 L95.625,76.125 L95.625,76.125 Z "/>
        <path d="M119.375,76.125 L105.375,76.125 L105.375,90.125 L119.375,90.125 L119.375,76.125 L119.375,76.125 Z "/>
        <path d="M147.875,76.125 L133.875,76.125 L133.875,90.125 L147.875,90.125 L147.875,76.125 L147.875,76.125 Z "/>
        <path d="M171.625,76.125 L157.625,76.125 L157.625,90.125 L171.625,90.125 L171.625,76.125 L171.625,76.125 Z "/>
        <path d="M190.625,76.125 L176.625,76.125 L176.625,90.125 L190.625,90.125 L190.625,76.125 L190.625,76.125 Z "/>
        <path d="M214.375,76.125 L200.375,76.125 L200.375,90.125 L214.375,90.125 L214.375,76.125 L214.375,76.125 Z "/>
        <path d="M242.875,76.125 L228.875,76.125 L228.875,90.125 L242.875,90.125 L242.875,76.125 L242.875,76.125 Z "/>
        <path d="M266.625,76.125 L252.625,76.125 L252.625,90.125 L266.625,90.125 L266.625,76.125 L266.625,76.125 Z "/>
        <path d="M290.375,76.125 L276.375,76.125 L276.375,90.125 L290.375,90.125 L290.375,76.125 L290.375,76.125 Z "/>
        <path d="M133.625,95.125 L119.625,95.125 L119.625,109.125 L133.625,109.125 L133.625,95.125 L133.625,95.125 Z "/>
        <path d="M157.375,95.125 L143.375,95.125 L143.375,109.125 L157.375,109.125 L157.375,95.125 L157.375,95.125 Z "/>
        <path d="M181.125,95.125 L167.125,95.125 L167.125,109.125 L181.125,109.125 L181.125,95.125 L181.125,95.125 Z "/>
        <path d="M204.875,95.125 L190.875,95.125 L190.875,109.125 L204.875,109.125 L204.875,95.125 L204.875,95.125 Z "/>
        <path d="M228.625,95.125 L214.625,95.125 L214.625,109.125 L228.625,109.125 L228.625,95.125 L228.625,95.125 Z "/>
        <line x1="171.625" y1="38.125" x2="157.625" y2="38.125"/>
        <line x1="157.625" y1="38.125" x2="157.625" y2="52.125"/>
        <line x1="157.625" y1="52.125" x2="171.025" y2="52.125"/>
        <line x1="171.625" y1="50.925" x2="171.625" y2="38.125"/>
        <line x1="177.225" y1="52.125" x2="190.625" y2="52.125"/>
        <line x1="190.625" y1="52.125" x2="190.625" y2="38.125"/>
        <line x1="190.625" y1="38.125" x2="176.625" y2="38.125"/>
        <line x1="176.625" y1="38.125" x2="176.625" y2="50.925"/>
        <line x1="167.125" y1="71.125" x2="181.125" y2="71.125"/>
        <line x1="181.125" y1="71.125" x2="181.125" y2="57.125"/>
        <line x1="181.125" y1="57.125" x2="177.225" y2="57.125"/>
        <line x1="171.025" y1="57.125" x2="167.125" y2="57.125"/>
        <line x1="167.125" y1="57.125" x2="167.125" y2="71.125"/>
    </g>
</svg>
